<svg width="185" height="205" viewBox="0 0 185 205" fill="none" xmlns="http://www.w3.org/2000/svg">
	<g clip-path="url(#clip0)">
	<ellipse cx="137.987" cy="96.7576" rx="5.00634" ry="5.0101" fill="#FF00FF"/>
	<path d="M165.835 71.3939L171.526 81.2576H160.145L165.835 71.3939Z" fill="#7B61FF"/>
	<ellipse opacity="0.89" rx="3.55458" ry="3.55709" transform="matrix(0.984785 0.173775 -0.173522 0.98483 26.0376 16.9592)" fill="#FF00FF"/>
	<rect opacity="0.71" width="8.41529" height="22.4329" transform="matrix(-0.514754 0.857338 -0.856996 -0.515322 72.3417 26.303)" fill="#18A0FB"/>
	<rect opacity="0.79" width="7.21319" height="19.228" transform="matrix(-0.499718 0.866188 -0.865863 -0.500282 132.167 4.07068)" fill="#18A0FB"/>
	<path opacity="0.85" d="M191.767 20.4428L191.767 33.7685L180.236 27.1056L191.767 20.4428Z" fill="#7B61FF"/>
	<rect opacity="0.8" width="5.9329" height="15.8309" transform="matrix(0.956243 -0.292572 0.292171 0.956366 7.50952 61.9687)" fill="#18A0FB"/>
	<path opacity="0.83" d="M91.6879 45.7379L90.0494 52.8404L84.7223 47.8691L91.6879 45.7379Z" fill="#7B61FF"/>
	<path opacity="0.89" d="M140.449 65.479L147.483 69.2219L140.727 73.4468L140.449 65.479Z" fill="#7B61FF"/>
	<path opacity="0.75" d="M7.25448 74.262L18.2941 74.262L12.7743 83.8297L7.25448 74.262Z" fill="#7B61FF"/>
	<rect opacity="0.71" width="6.68683" height="17.827" transform="matrix(-0.573288 -0.819354 0.81895 -0.573865 102.38 89.806)" fill="#18A0FB"/>
	<ellipse opacity="0.76" rx="5.51014" ry="5.50794" transform="matrix(-0.484531 0.874774 -0.874465 -0.485088 116.546 80.6816)" fill="#FF00FF"/>
	<rect opacity="0.91" width="7.88775" height="21.0351" transform="matrix(0.731098 0.682272 -0.681724 0.731609 18.1479 112.007)" fill="#18A0FB"/>
	<rect opacity="0.71" width="6.76172" height="18.028" transform="matrix(-0.615374 0.788235 -0.787786 -0.615949 75.7836 127.664)" fill="#18A0FB"/>
	<rect opacity="0.78" width="5.48421" height="14.6234" transform="matrix(0.668852 -0.743395 0.742894 0.669409 163.144 132.047)" fill="#18A0FB"/>
	<ellipse opacity="0.87" rx="4.60837" ry="4.60675" transform="matrix(-0.514755 -0.857338 0.856997 -0.515322 35.6815 157.631)" fill="#FF00FF"/>
	<path opacity="0.98" d="M98.3346 154.504L90.8004 144.498L103.226 142.971L98.3346 154.504Z" fill="#7B61FF"/>
	<rect opacity="0.76" width="4.65824" height="12.4188" transform="matrix(0.573286 0.819355 -0.818949 0.573867 160.015 156.127)" fill="#18A0FB"/>
	<rect opacity="0.97" width="5.18211" height="13.8264" transform="matrix(0.927086 -0.374848 0.374365 0.927281 11.5771 172.379)" fill="#18A0FB"/>
	<ellipse opacity="0.88" rx="4.70947" ry="4.70599" transform="matrix(0.0870907 -0.9962 0.996189 0.0872208 95.275 196.906)" fill="#FF00FF"/>
	<path opacity="0.79" d="M171.688 185.779L164.212 187.783L166.215 180.302L171.688 185.779Z" fill="#7B61FF"/>
	<path opacity="0.82" d="M176.054 201.109L171.256 195.776L178.27 194.285L176.054 201.109Z" fill="#7B61FF"/>
	<path opacity="0.99" d="M124.781 211.056L125.478 197.749L136.646 205.006L124.781 211.056Z" fill="#7B61FF"/>
	</g>
	<defs>
	<clipPath id="clip0">
	<rect width="185" height="205" fill="white"/>
	</clipPath>
	</defs>
</svg>